<svg xmlns="http://www.w3.org/2000/svg" width="4200" height="3500" viewBox="0 0 4200 3500" role="img" aria-labelledby="title desc">
  <title id="title">IAM 三核心模块领域模型 V7（准入策略与边界语义）</title>
  <desc id="desc">中心区域展示 Identity、AuthN、AuthZ 三个限界上下文。色相表示所属上下文；白底细边框表示实体、值对象与结果模型；白底粗边框表示聚合根；浅主题色底表示领域服务与领域策略。应用能力和基础设施实现仅在外部知识 Tips 中说明。</desc>

  <defs>
    <filter id="shadow" x="-20%" y="-20%" width="140%" height="140%">
      <feDropShadow dx="0" dy="5" stdDeviation="8" flood-color="#0f172a" flood-opacity="0.08"/>
    </filter>
    <marker id="arrow" viewBox="0 0 10 10" refX="9" refY="5" markerWidth="9" markerHeight="9" orient="auto-start-reverse">
      <path d="M0 0 L10 5 L0 10 Z" fill="#334155"/>
    </marker>
    <marker id="arrowBlue" viewBox="0 0 10 10" refX="9" refY="5" markerWidth="9" markerHeight="9" orient="auto-start-reverse">
      <path d="M0 0 L10 5 L0 10 Z" fill="#4267b2"/>
    </marker>
    <marker id="arrowPurple" viewBox="0 0 10 10" refX="9" refY="5" markerWidth="9" markerHeight="9" orient="auto-start-reverse">
      <path d="M0 0 L10 5 L0 10 Z" fill="#7653b5"/>
    </marker>
    <style>
      text { font-family: "PingFang SC", "Noto Sans CJK SC", "Microsoft YaHei", Arial, sans-serif; fill: #1f2937; }
      .title { font-size: 58px; font-weight: 700; }
      .subtitle { font-size: 24px; fill: #64748b; }
      .context-title { font-size: 38px; font-weight: 700; }
      .context-sub { font-size: 20px; fill: #475569; }
      .section-title { font-size: 25px; font-weight: 700; }
      .section-desc { font-size: 16px; fill: #64748b; }
      .stereotype { font-size: 14px; font-weight: 700; letter-spacing: 0.8px; fill: #64748b; }
      .model { font-size: 24px; font-weight: 700; }
      .field { font-size: 16px; fill: #475569; }
      .operation { font-size: 15px; font-weight: 600; fill: #6941a5; }
      .small { font-size: 14px; fill: #64748b; }
      .tip { font-size: 14px; font-weight: 600; fill: #475569; }
      .knowledge-title { font-size: 24px; font-weight: 700; fill: #7c4a12; }
      .knowledge-text { font-size: 18px; fill: #5f4325; }
      .knowledge-tag { font-size: 14px; font-weight: 700; letter-spacing: 0.8px; fill: #9a5b17; }
      .knowledge-line { fill: none; stroke: #a36b32; stroke-width: 2.5; stroke-dasharray: 8 8; }
      .knowledge-anchor { fill: #f59e0b; stroke: #ffffff; stroke-width: 3; }
      .relation { font-size: 15px; font-weight: 600; fill: #475569; }
      .relation-blue { font-size: 16px; font-weight: 600; fill: #4267b2; }
      .callout { font-size: 28px; font-weight: 700; }
      .note { font-size: 19px; fill: #475569; }
      .solid { fill: none; stroke: #334155; stroke-width: 3; marker-end: url(#arrow); }
      .association { fill: none; stroke: #64748b; stroke-width: 3; }
      .reference { fill: none; stroke: #4267b2; stroke-width: 3; stroke-dasharray: 12 9; marker-end: url(#arrowBlue); }
      .policy-link { fill: none; stroke: #7653b5; stroke-width: 3; marker-end: url(#arrowPurple); }
      .divider { stroke: #e2e8f0; stroke-width: 1.5; }
      /* V7 semantic model colors: hue=context, fill=model kind, weight=aggregate boundary */
      .authn-model { fill: #ffffff; stroke: #7bb98d; stroke-width: 2.2; }
      .authn-aggregate { fill: #ffffff; stroke: #2f855a; stroke-width: 3.2; }
      .authn-behavior { fill: #e9f7ed; stroke: #2f855a; stroke-width: 2.8; }
      .identity-model { fill: #ffffff; stroke: #e0b94f; stroke-width: 2.2; }
      .identity-aggregate { fill: #ffffff; stroke: #d29b23; stroke-width: 3.2; }
      .identity-behavior { fill: #fff3c8; stroke: #d29b23; stroke-width: 2.8; }
      .authz-model { fill: #ffffff; stroke: #9a82c6; stroke-width: 2.2; }
      .authz-aggregate { fill: #ffffff; stroke: #7653b5; stroke-width: 3.2; }
      .authz-behavior { fill: #eee6fb; stroke: #7653b5; stroke-width: 2.8; }
    </style>
  </defs>

  <rect width="4200" height="3500" fill="#ffffff"/>
  <text x="2100" y="82" text-anchor="middle" class="title">IAM 三核心模块领域模型 V7｜准入策略与边界语义</text>
  <text x="2100" y="124" text-anchor="middle" class="subtitle">领域模型留在所属上下文；应用窄能力、协议实现与基础设施通过周边 Tips 说明</text>

  <!-- External knowledge-note connectors: explanatory only, never domain dependencies -->
  <path d="M410 460 C410 575 870 650 870 905" class="knowledge-line"/>
  <path d="M1130 460 C1130 650 1295 900 1295 1320" class="knowledge-line"/>
  <path d="M2090 460 C2090 620 2100 820 2100 1162" class="knowledge-line"/>
  <path d="M2880 460 C2880 600 2995 720 2995 873" class="knowledge-line"/>
  <path d="M3710 460 C3710 650 3440 860 3440 1225" class="knowledge-line"/>
  <path d="M410 2600 V2525 H348 V2100" class="knowledge-line"/>
  <path d="M1130 2600 V2525 H845 V2300" class="knowledge-line"/>
  <path d="M2090 2600 V2570 H2460 V1405 H2365" class="knowledge-line"/>
  <path d="M2880 2600 V2570 H2480 V1700 H2530" class="knowledge-line"/>
  <path d="M3710 2600 V2570 H4170 V2200 H4110" class="knowledge-line"/>

  <g transform="translate(0 350)">
  <!-- AuthN bounded context -->
  <rect x="55" y="175" width="1650" height="1990" rx="28" fill="#f2faf4" stroke="#4a9b61" stroke-width="3" filter="url(#shadow)"/>
  <rect x="55" y="175" width="1650" height="112" rx="28" fill="#dff3e5"/>
  <path d="M55 258 H1705" stroke="#4a9b61" stroke-width="2"/>
  <text x="880" y="220" text-anchor="middle" class="context-title">AuthN｜认证上下文</text>
  <text x="880" y="250" text-anchor="middle" class="context-sub">拥有登录身份、认证证明、认证结果、会话与令牌状态</text>

  <!-- AuthN section 1 -->
  <rect x="90" y="315" width="1580" height="405" rx="20" fill="#fbfefc" stroke="#b7dfc3" stroke-width="2"/>
  <text x="125" y="355" class="section-title">1｜长期认证事实</text>
  <text x="125" y="383" class="section-desc">登录入口与可长期持有的认证材料</text>

  <g filter="url(#shadow)">
    <rect x="145" y="420" width="660" height="235" rx="18" class="authn-aggregate"/>
    <text x="175" y="452" class="stereotype">AGGREGATE ROOT</text>
    <text x="475" y="485" text-anchor="middle" class="model">LoginIdentity｜登录身份</text>
    <line x1="145" y1="505" x2="805" y2="505" class="divider"/>
    <text x="175" y="538" class="field">ID · UserID</text>
    <text x="175" y="570" class="field">Provider · Realm · Identifier</text>
    <text x="175" y="602" class="field">GlobalIdentifier · Status · VerifiedAt</text>
  </g>

  <g filter="url(#shadow)">
    <rect x="940" y="420" width="650" height="235" rx="18" class="authn-model"/>
    <text x="970" y="452" class="stereotype">ENTITY</text>
    <text x="1265" y="485" text-anchor="middle" class="model">Credential｜登录凭据</text>
    <line x1="940" y1="505" x2="1590" y2="505" class="divider"/>
    <text x="970" y="538" class="field">ID · LoginIdentityID · Type</text>
    <text x="970" y="570" class="field">Material · Algo · Status</text>
    <text x="970" y="602" class="field">FailedAttempts · LockedUntil</text>
  </g>
  <path d="M940 555 H807" class="solid"/>
  <text x="873" y="536" text-anchor="middle" class="relation">属于</text>
  <text x="918" y="580" text-anchor="end" class="small">0..*</text>
  <text x="826" y="580" class="small">1</text>

  <!-- AuthN section 2 -->
  <rect x="90" y="750" width="1580" height="685" rx="20" fill="#f6fcf8" stroke="#b7dfc3" stroke-width="2"/>
  <text x="125" y="790" class="section-title">2｜单次认证语义</text>
  <text x="125" y="818" class="section-desc">AuthCredential 提供 Kind，Authenticator 选择 AuthStrategy，成功后形成 Principal</text>

  <g filter="url(#shadow)">
    <rect x="125" y="855" width="385" height="230" rx="17" class="authn-model"/>
    <text x="150" y="885" class="stereotype">SHORT-LIVED ENTITY</text>
    <text x="318" y="918" text-anchor="middle" class="model">Challenge｜认证挑战</text>
    <line x1="125" y1="938" x2="510" y2="938" class="divider"/>
    <text x="150" y="970" class="field">ID · Type · Scene</text>
    <text x="150" y="1002" class="field">Target · SecretHash · Attempts</text>
    <text x="150" y="1034" class="field">ExpiresAt · ConsumedAt</text>
  </g>

  <g filter="url(#shadow)">
    <rect x="555" y="855" width="430" height="230" rx="17" class="authn-model"/>
    <text x="580" y="885" class="stereotype">INTERFACE · PROOF VALUE</text>
    <text x="770" y="918" text-anchor="middle" class="model">AuthCredential</text>
    <line x1="555" y1="938" x2="985" y2="938" class="divider"/>
    <text x="580" y="970" class="operation">CredentialKind()</text>
    <text x="580" y="1002" class="field">password · phone_otp · oauth_wecom</text>
    <text x="580" y="1034" class="field">oauth_wx_minip · oauth_wx_open</text>
  </g>

  <g filter="url(#shadow)">
    <rect x="1030" y="855" width="250" height="230" rx="17" class="authn-behavior"/>
    <text x="1050" y="885" class="stereotype">DOMAIN SERVICE · DISPATCHER</text>
    <text x="1155" y="918" text-anchor="middle" class="model">Authenticator</text>
    <line x1="1030" y1="938" x2="1280" y2="938" class="divider"/>
    <text x="1050" y="973" class="operation">Authenticate(proof)</text>
    <text x="1050" y="1005" class="field">strategyFor(kind)</text>
    <text x="1050" y="1037" class="field">统一处理 AuthDecision</text>
  </g>


  <g filter="url(#shadow)">
    <rect x="1310" y="855" width="280" height="230" rx="17" class="authn-behavior"/>
    <text x="1330" y="885" class="stereotype">DOMAIN SERVICE INTERFACE</text>
    <text x="1450" y="918" text-anchor="middle" class="model">AuthStrategy｜策略族</text>
    <line x1="1310" y1="938" x2="1590" y2="938" class="divider"/>
    <text x="1330" y="970" class="operation">Kind() · Authenticate(proof)</text>
    <text x="1330" y="1002" class="field">Password · PhoneOTP</text>
    <text x="1330" y="1034" class="field">WechatMini · WechatOpen</text>
    <text x="1330" y="1066" class="field">WeCom</text>
  </g>
  <path d="M1282 970 H1308" class="solid"/>
  <text x="1295" y="951" text-anchor="middle" class="relation">按 Kind 选择</text>

  <path d="M510 970 H553" class="solid"/>
  <text x="532" y="951" text-anchor="middle" class="relation">支持</text>
  <path d="M987 970 H1028" class="solid"/>
  <text x="1007" y="951" text-anchor="middle" class="relation">提交</text>
  <path d="M805 555 V690 H1450 V853" class="association"/>
  <text x="1125" y="680" text-anchor="middle" class="relation">向具体策略提供登录身份与长期凭据</text>

  <g filter="url(#shadow)">
    <rect x="325" y="1150" width="515" height="210" rx="17" class="authn-model"/>
    <text x="350" y="1180" class="stereotype">RESULT VALUE</text>
    <text x="583" y="1213" text-anchor="middle" class="model">AuthDecision｜认证判定</text>
    <line x1="325" y1="1233" x2="840" y2="1233" class="divider"/>
    <text x="350" y="1265" class="field">OK · Code</text>
    <text x="350" y="1297" class="field">LoginIdentityID · CredentialID</text>
    <text x="350" y="1320" class="field">ShouldRotate · Principal(0..1)</text>
  </g>

  <g filter="url(#shadow)">
    <rect x="945" y="1150" width="585" height="210" rx="17" class="authn-model"/>
    <text x="970" y="1180" class="stereotype">AUTHENTICATION RESULT</text>
    <text x="1238" y="1213" text-anchor="middle" class="model">Principal｜已认证主体</text>
    <line x1="945" y1="1233" x2="1530" y2="1233" class="divider"/>
    <text x="970" y="1265" class="field">UserID · LoginIdentityID</text>
    <text x="970" y="1297" class="field">TenantID · SessionID · AuthMethod</text>
    <text x="970" y="1320" class="field">Realm · AMR · Claims</text>
  </g>
  <path d="M1450 1087 V1115 H583 V1148" class="solid"/>
  <text x="1015" y="1106" text-anchor="middle" class="relation">返回统一 AuthDecision</text>
  <path d="M842 1255 H943" class="solid"/>
  <text x="892" y="1237" text-anchor="middle" class="relation">成功时包含</text>

  <!-- AuthN section 3 -->
  <rect x="90" y="1465" width="1580" height="650" rx="20" fill="#f9fdf9" stroke="#b7dfc3" stroke-width="2"/>
  <text x="125" y="1505" class="section-title">3｜在线认证状态与令牌</text>
  <text x="125" y="1533" class="section-desc">认证成功只形成 Principal；AdmissionPolicy 决定是否允许建立或维持在线认证状态</text>

  <g filter="url(#shadow)">
    <rect x="125" y="1570" width="445" height="230" rx="17" class="authn-behavior"/>
    <text x="150" y="1600" class="stereotype">DOMAIN POLICY · AUTHN ADMISSION</text>
    <text x="348" y="1633" text-anchor="middle" class="model">AdmissionPolicy｜认证准入策略</text>
    <line x1="125" y1="1653" x2="570" y2="1653" class="divider"/>
    <text x="150" y="1685" class="operation">Evaluate(userID, loginIdentityID)</text>
    <text x="150" y="1717" class="field">LoginIdentity Repository · UserStatusReader</text>
    <text x="150" y="1749" class="field">校验归属关系与双方当前状态</text>
  </g>

  <g filter="url(#shadow)">
    <rect x="630" y="1570" width="430" height="230" rx="17" class="authn-model"/>
    <text x="655" y="1600" class="stereotype">POLICY RESULT VALUE</text>
    <text x="845" y="1633" text-anchor="middle" class="model">AdmissionDecision｜准入判定</text>
    <line x1="630" y1="1653" x2="1060" y2="1653" class="divider"/>
    <text x="655" y="1685" class="field">UserID · LoginIdentityID</text>
    <text x="655" y="1717" class="field">Status</text>
    <text x="655" y="1749" class="field">active · blocked · disabled · inactive</text>
  </g>

  <g filter="url(#shadow)">
    <rect x="1120" y="1570" width="470" height="230" rx="17" class="authn-behavior"/>
    <text x="1145" y="1600" class="stereotype">DOMAIN POLICY · SESSION LIFETIME</text>
    <text x="1355" y="1633" text-anchor="middle" class="model">LifetimePolicy｜生命周期策略</text>
    <line x1="1120" y1="1653" x2="1590" y2="1653" class="divider"/>
    <text x="1145" y="1685" class="operation">InitialExpiresAt(now)</text>
    <text x="1145" y="1717" class="operation">RefreshTokenExpiresAt(now, session)</text>
    <text x="1145" y="1749" class="field">refreshTTL · sessionMaxTTL</text>
  </g>

  <g filter="url(#shadow)">
    <rect x="125" y="1860" width="445" height="195" rx="17" class="authn-aggregate"/>
    <text x="150" y="1890" class="stereotype">AGGREGATE ROOT</text>
    <text x="348" y="1923" text-anchor="middle" class="model">Session｜认证会话</text>
    <line x1="125" y1="1943" x2="570" y2="1943" class="divider"/>
    <text x="150" y="1975" class="field">SessionID · UserID · LoginIdentityID · TenantID</text>
    <text x="150" y="2003" class="field">Status · ExpiresAt · RevokedAt</text>
  </g>

  <g filter="url(#shadow)">
    <rect x="630" y="1860" width="430" height="195" rx="17" class="authn-model"/>
    <text x="655" y="1890" class="stereotype">APPLICATION RESULT · ACCESS TOKEN</text>
    <text x="845" y="1923" text-anchor="middle" class="model">AccessToken</text>
    <line x1="630" y1="1943" x2="1060" y2="1943" class="divider"/>
    <text x="655" y="1975" class="field">Subject · SessionID · TenantID</text>
    <text x="655" y="2003" class="field">Audience · AMR · IssuedAt · ExpiresAt</text>
  </g>

  <g filter="url(#shadow)">
    <rect x="1120" y="1860" width="470" height="195" rx="17" class="authn-model"/>
    <text x="1145" y="1890" class="stereotype">APPLICATION RESULT · REFRESH TOKEN</text>
    <text x="1355" y="1923" text-anchor="middle" class="model">RefreshToken</text>
    <line x1="1120" y1="1943" x2="1590" y2="1943" class="divider"/>
    <text x="1145" y="1975" class="field">ID · SessionID · UserID · LoginIdentityID</text>
    <text x="1145" y="2003" class="field">TenantID · AMR · IssuedAt · ExpiresAt</text>
  </g>

  <path d="M1238 1362 V1448 H348 V1568" class="solid"/>
  <text x="790" y="1438" text-anchor="middle" class="relation">认证成功后执行准入判定</text>
  <path d="M572 1685 H628" class="solid"/>
  <text x="600" y="1666" text-anchor="middle" class="relation">返回</text>
  <path d="M845 1802 V1828 H348 V1858" class="solid"/>
  <text x="585" y="1820" text-anchor="middle" class="relation">active 时允许建立 Session</text>
  <path d="M1355 1802 V1838 H520 V1858" class="association"/>
  <path d="M1355 1802 V1858" class="association"/>
  <text x="1020" y="1820" text-anchor="middle" class="relation">约束 Session 与 RefreshToken 过期边界</text>
  <path d="M570 1958 H628" class="solid"/>
  <text x="600" y="1939" text-anchor="middle" class="relation">绑定</text>
  <path d="M570 2018 H1090 V1958 H1118" class="solid"/>
  <text x="845" y="2046" text-anchor="middle" class="relation">绑定并参与轮换</text>

  <!-- Identity bounded context -->
  <rect x="1755" y="175" width="690" height="1990" rx="28" fill="#fff9e8" stroke="#d29b23" stroke-width="3" filter="url(#shadow)"/>
  <rect x="1755" y="175" width="690" height="112" rx="28" fill="#ffefbd"/>
  <path d="M1755 258 H2445" stroke="#d29b23" stroke-width="2"/>
  <text x="2100" y="220" text-anchor="middle" class="context-title">Identity｜身份上下文</text>
  <text x="2100" y="250" text-anchor="middle" class="context-sub">拥有稳定 User、自然人 Profile 与身份关系</text>

  <rect x="1795" y="315" width="610" height="1810" rx="22" fill="#fffdf7" stroke="#f0cf82" stroke-width="2"/>
  <text x="1830" y="362" class="section-title">稳定身份与自然人档案</text>
  <text x="1830" y="392" class="section-desc">认证、授权只通过稳定 ID 引用 Identity，不共享实体实例</text>

  <g filter="url(#shadow)">
    <rect x="1835" y="450" width="530" height="260" rx="20" class="identity-aggregate"/>
    <text x="1865" y="482" class="stereotype">AGGREGATE ROOT · STABLE ANCHOR</text>
    <text x="2100" y="520" text-anchor="middle" class="model">User｜系统使用者</text>
    <line x1="1835" y1="543" x2="2365" y2="543" class="divider"/>
    <text x="1865" y="578" class="field">ID · Name · Nickname</text>
    <text x="1865" y="612" class="field">Phone · Email · Status</text>
  </g>

  <g filter="url(#shadow)">
    <rect x="1835" y="905" width="530" height="305" rx="20" class="identity-model"/>
    <text x="1865" y="937" class="stereotype">RELATION ENTITY</text>
    <text x="2100" y="975" text-anchor="middle" class="model">ProfileLink｜身份关系</text>
    <line x1="1835" y1="998" x2="2365" y2="998" class="divider"/>
    <text x="1865" y="1033" class="field">ID · User · Profile</text>
    <text x="1865" y="1067" class="field">Type · Rel</text>
    <text x="1865" y="1101" class="field">EstablishedAt · RevokedAt</text>
  </g>

  <g filter="url(#shadow)">
    <rect x="1835" y="1400" width="530" height="260" rx="20" class="identity-aggregate"/>
    <text x="1865" y="1432" class="stereotype">AGGREGATE ROOT</text>
    <text x="2100" y="1470" text-anchor="middle" class="model">Profile｜自然人档案</text>
    <line x1="1835" y1="1493" x2="2365" y2="1493" class="divider"/>
    <text x="1865" y="1528" class="field">ID · Name · IDCard</text>
    <text x="1865" y="1562" class="field">Gender · Birthday</text>
  </g>

  <path d="M2100 712 V903" class="association"/>
  <text x="2130" y="752" class="small">1</text>
  <text x="2130" y="812" class="relation">建立</text>
  <text x="2130" y="890" class="small">0..*</text>
  <path d="M2100 1212 V1398" class="association"/>
  <text x="2130" y="1248" class="small">0..*</text>
  <text x="2130" y="1310" class="relation">指向</text>
  <text x="2130" y="1385" class="small">1</text>

  <rect x="1835" y="1770" width="530" height="270" rx="20" fill="#fffaf0" stroke="#e8c465" stroke-width="2"/>
  <text x="2100" y="1815" text-anchor="middle" class="model">Identity 边界规则</text>
  <text x="1865" y="1860" class="note">• 拥有 User / Profile 生命周期</text>
  <text x="1865" y="1902" class="note">• 不校验 Credential / Token</text>
  <text x="1865" y="1944" class="note">• 不拥有 Role / Permission</text>
  <text x="1865" y="1986" class="note">• 对外暴露 UserStatusReader / UserResolver</text>

  <!-- AuthZ bounded context -->
  <rect x="2495" y="175" width="1650" height="1990" rx="28" fill="#f6f2fc" stroke="#7653b5" stroke-width="3" filter="url(#shadow)"/>
  <rect x="2495" y="175" width="1650" height="112" rx="28" fill="#e8def8"/>
  <path d="M2495 258 H4145" stroke="#7653b5" stroke-width="2"/>
  <text x="3320" y="220" text-anchor="middle" class="context-title">AuthZ｜授权上下文</text>
  <text x="3320" y="250" text-anchor="middle" class="context-sub">Subject × Tenant × Resource × Action × ObjectScope → allow / deny</text>

  <!-- AuthZ section 1 -->
  <rect x="2530" y="315" width="1580" height="765" rx="20" fill="#fcfaff" stroke="#cbbce6" stroke-width="2"/>
  <text x="2565" y="355" class="section-title">1｜长期授权事实</text>
  <text x="2565" y="383" class="section-desc">Subject 通过 RoleBinding 获得 Role，Role 通过 Permission 获得对资源能力的授权</text>

  <g filter="url(#shadow)">
    <rect x="2570" y="420" width="390" height="205" rx="17" class="authz-model"/>
    <text x="2595" y="450" class="stereotype">VALUE REFERENCE</text>
    <text x="2765" y="483" text-anchor="middle" class="model">Subject.Ref｜授权主体</text>
    <line x1="2570" y1="503" x2="2960" y2="503" class="divider"/>
    <text x="2595" y="537" class="field">Type · ID</text>
    <text x="2595" y="569" class="field">Type: user / group / service（模型能力）</text>
  </g>

  <g filter="url(#shadow)">
    <rect x="3030" y="420" width="450" height="205" rx="17" class="authz-aggregate"/>
    <text x="3055" y="450" class="stereotype">AGGREGATE ROOT</text>
    <text x="3255" y="483" text-anchor="middle" class="model">RoleBinding｜角色绑定</text>
    <line x1="3030" y1="503" x2="3480" y2="503" class="divider"/>
    <text x="3055" y="537" class="field">ID · SubjectType · SubjectID</text>
    <text x="3055" y="569" class="field">RoleID · TenantID · GrantedBy</text>
  </g>

  <g filter="url(#shadow)">
    <rect x="3550" y="420" width="510" height="205" rx="17" class="authz-aggregate"/>
    <text x="3575" y="450" class="stereotype">AGGREGATE ROOT</text>
    <text x="3805" y="483" text-anchor="middle" class="model">Role｜角色</text>
    <line x1="3550" y1="503" x2="4060" y2="503" class="divider"/>
    <text x="3575" y="537" class="field">ID · Name · DisplayName</text>
    <text x="3575" y="569" class="field">TenantID · Description</text>
  </g>

  <path d="M2962 523 H3028" class="solid"/>
  <text x="2995" y="505" text-anchor="middle" class="relation">绑定</text>
  <path d="M3482 523 H3548" class="solid"/>
  <text x="3515" y="505" text-anchor="middle" class="relation">授予</text>

  <g filter="url(#shadow)">
    <rect x="2780" y="755" width="610" height="245" rx="17" class="authz-model"/>
    <text x="2805" y="785" class="stereotype">AUTHORIZATION FACT</text>
    <text x="3085" y="818" text-anchor="middle" class="model">Permission｜权限事实</text>
    <line x1="2780" y1="838" x2="3390" y2="838" class="divider"/>
    <text x="2805" y="872" class="field">RoleName · TenantID</text>
    <text x="2805" y="904" class="field">ResourceKey(Pattern) · Action(Pattern)</text>
    <text x="2805" y="936" class="field">Scope{Kind, Value}</text>
  </g>

  <g filter="url(#shadow)">
    <rect x="3490" y="755" width="570" height="270" rx="17" class="authz-aggregate"/>
    <text x="3515" y="785" class="stereotype">RESOURCE CATALOG · AGGREGATE ROOT</text>
    <text x="3775" y="818" text-anchor="middle" class="model">Resource Catalog｜资源能力目录</text>
    <line x1="3490" y1="838" x2="4060" y2="838" class="divider"/>
    <text x="3515" y="872" class="field">ID · Key · DisplayName</text>
    <text x="3515" y="904" class="field">AppName · Domain · Type</text>
    <text x="3515" y="936" class="field">Actions[] · ScopeKinds[]</text>
    <text x="3515" y="968" class="small">Key: &lt;app&gt;:&lt;domain&gt;:&lt;type&gt;:&lt;name/pattern&gt;</text>
  </g>

  <path d="M3805 627 V690 H3085 V753" class="solid"/>
  <text x="3445" y="680" text-anchor="middle" class="relation">拥有 0..*</text>
  <path d="M3392 875 H3488" class="association"/>
  <text x="3440" y="857" text-anchor="middle" class="relation">匹配 Key / Action / Scope</text>

  <!-- AuthZ section 2 -->
  <rect x="2530" y="1110" width="1580" height="450" rx="20" fill="#faf7ff" stroke="#cbbce6" stroke-width="2"/>
  <text x="2565" y="1150" class="section-title">2｜策略变更语义</text>
  <text x="2565" y="1178" class="section-desc">修改授权事实、推进租户策略版本并发布版本变更事件</text>

  <g filter="url(#shadow)">
    <rect x="2570" y="1225" width="510" height="250" rx="17" class="authz-behavior"/>
    <text x="2595" y="1255" class="stereotype">DOMAIN SERVICE</text>
    <text x="2825" y="1288" text-anchor="middle" class="model">AuthorizationPolicy</text>
    <line x1="2570" y1="1308" x2="3080" y2="1308" class="divider"/>
    <text x="2595" y="1342" class="operation">BindRole / UnbindRole</text>
    <text x="2595" y="1374" class="operation">GrantPermission / RevokePermission</text>
  </g>

  <g filter="url(#shadow)">
    <rect x="3170" y="1225" width="430" height="250" rx="17" class="authz-model"/>
    <text x="3195" y="1255" class="stereotype">CHANGE VALUE</text>
    <text x="3385" y="1288" text-anchor="middle" class="model">PolicyChange</text>
    <line x1="3170" y1="1308" x2="3600" y2="1308" class="divider"/>
    <text x="3195" y="1342" class="field">Kind · TenantID</text>
    <text x="3195" y="1374" class="field">Actor · Reason</text>
    <text x="3195" y="1406" class="field">Permission / RoleBinding</text>
  </g>

  <g filter="url(#shadow)">
    <rect x="3690" y="1225" width="370" height="285" rx="17" class="authz-model"/>
    <text x="3715" y="1255" class="stereotype">VERSION + EVENT</text>
    <text x="3875" y="1288" text-anchor="middle" class="model">PolicyVersion</text>
    <line x1="3690" y1="1308" x2="4060" y2="1308" class="divider"/>
    <text x="3715" y="1342" class="field">TenantID · Version</text>
    <text x="3715" y="1374" class="field">ChangedBy · Reason</text>
    <text x="3715" y="1410" class="field">VersionChangedEvent</text>
    <text x="3715" y="1442" class="field">TenantID · Version</text>
  </g>

  <path d="M3082 1350 H3168" class="policy-link"/>
  <text x="3125" y="1332" text-anchor="middle" class="relation">产生</text>
  <path d="M3602 1350 H3688" class="policy-link"/>
  <text x="3645" y="1332" text-anchor="middle" class="relation">提交后推进</text>
  <path d="M2825 1223 V1090 H3255 V627" class="association"/>
  <text x="3045" y="1082" text-anchor="middle" class="relation">修改 RoleBinding / Permission</text>

  <!-- AuthZ section 3 -->
  <rect x="2530" y="1590" width="1580" height="525" rx="20" fill="#fcfaff" stroke="#cbbce6" stroke-width="2"/>
  <text x="2565" y="1630" class="section-title">3｜单次授权判定</text>
  <text x="2565" y="1658" class="section-desc">资源服务从可信上下文构造 Subject、Tenant 与 ObjectScope，再提交五元组进行 Check</text>

  <g filter="url(#shadow)">
    <rect x="2570" y="1710" width="540" height="215" rx="17" class="authz-model"/>
    <text x="2595" y="1740" class="stereotype">REQUEST VALUE</text>
    <text x="2840" y="1773" text-anchor="middle" class="model">AuthorizationRequest</text>
    <line x1="2570" y1="1793" x2="3110" y2="1793" class="divider"/>
    <text x="2595" y="1827" class="field">Subject · TenantID</text>
    <text x="2595" y="1859" class="field">ResourceKey · Action</text>
    <text x="2595" y="1891" class="field">ObjectScope</text>
  </g>

  <g filter="url(#shadow)">
    <rect x="2570" y="1960" width="250" height="105" rx="15" class="authz-model"/>
    <text x="2590" y="1987" class="stereotype">VALUE OBJECT</text>
    <text x="2695" y="2020" text-anchor="middle" class="model">Tenant｜租户边界</text>
    <text x="2590" y="2048" class="small">tenant.ID</text>
  </g>

  <g filter="url(#shadow)">
    <rect x="2860" y="1960" width="250" height="105" rx="15" class="authz-model"/>
    <text x="2880" y="1987" class="stereotype">VALUE OBJECT</text>
    <text x="2985" y="2020" text-anchor="middle" class="model">Scope｜对象范围</text>
    <text x="2880" y="2048" class="small">all:* · origin:&lt;value&gt;</text>
  </g>

  <g filter="url(#shadow)">
    <rect x="3190" y="1740" width="390" height="220" rx="17" class="authz-behavior"/>
    <text x="3215" y="1770" class="stereotype">APPLICATION PORT</text>
    <text x="3385" y="1803" text-anchor="middle" class="model">DecisionEngine</text>
    <line x1="3190" y1="1823" x2="3580" y2="1823" class="divider"/>
    <text x="3215" y="1857" class="operation">Check(request)</text>
  </g>

  <g filter="url(#shadow)">
    <rect x="3660" y="1710" width="400" height="280" rx="17" class="authz-model"/>
    <text x="3685" y="1740" class="stereotype">DECISION VALUE</text>
    <text x="3860" y="1773" text-anchor="middle" class="model">Decision</text>
    <line x1="3660" y1="1793" x2="4060" y2="1793" class="divider"/>
    <text x="3685" y="1827" class="field">Allowed · Reason · DenyCode</text>
    <text x="3685" y="1859" class="field">MatchedRole</text>
    <text x="3685" y="1891" class="field">MatchedPermission</text>
    <text x="3685" y="1923" class="field">PolicyVersion · EvaluatedAt</text>
  </g>

  <path d="M3112 1850 H3188" class="solid"/>
  <text x="3150" y="1832" text-anchor="middle" class="relation">提交</text>
  <path d="M3582 1850 H3658" class="solid"/>
  <text x="3620" y="1832" text-anchor="middle" class="relation">返回</text>
  <path d="M2765 627 V1690 H2840 V1708" class="association"/>
  <text x="2795" y="1680" class="relation">提供 Subject</text>
  <path d="M2695 1958 V1927" class="association"/>
  <path d="M2985 1958 V1927" class="association"/>
  <path d="M3085 1002 V1540 H3385 V1738" class="association"/>
  <text x="3205" y="1530" text-anchor="middle" class="relation">读取 Role / Permission / Resource Catalog</text>
  <path d="M3875 1512 V1680 H3385 V1738" class="association"/>
  <text x="3650" y="1670" text-anchor="middle" class="relation">携带当前 PolicyVersion</text>

  <!-- Cross-context references. No AuthN to AuthZ domain dependency. -->
  <path d="M805 535 V395 H1740 Q1768 395 1768 580 H1833" class="reference"/>
  <rect x="1465" y="366" width="275" height="36" rx="18" fill="#ffffff"/>
  <text x="1602" y="391" text-anchor="middle" class="relation-blue">UserID → User.ID</text>

  <path d="M2570 545 H2460 Q2428 545 2428 580 H2367" class="reference"/>
  <rect x="2295" y="490" width="440" height="36" rx="18" fill="#ffffff"/>
  <text x="2515" y="515" text-anchor="middle" class="relation-blue">UserResolver：Subject(user).ID → User.ID</text>

  <path d="M1833 600 H1725 V1548 H348 V1568" class="reference"/>
  <rect x="1090" y="1518" width="580" height="34" rx="17" fill="#ffffff"/>
  <text x="1380" y="1542" text-anchor="middle" class="relation-blue">UserStatusReader：Identity.User.Status → AuthN 访问门禁</text>

  </g>

  <!-- Knowledge-note anchors -->
  <circle cx="870" cy="905" r="9" class="knowledge-anchor"/>
  <circle cx="1295" cy="1320" r="9" class="knowledge-anchor"/>
  <circle cx="2100" cy="1162" r="9" class="knowledge-anchor"/>
  <circle cx="2995" cy="873" r="9" class="knowledge-anchor"/>
  <circle cx="3440" cy="1225" r="9" class="knowledge-anchor"/>
  <circle cx="348" cy="2100" r="9" class="knowledge-anchor"/>
  <circle cx="845" cy="2300" r="9" class="knowledge-anchor"/>
  <circle cx="2365" cy="1405" r="9" class="knowledge-anchor"/>
  <circle cx="2530" cy="1700" r="9" class="knowledge-anchor"/>
  <circle cx="4110" cy="2200" r="9" class="knowledge-anchor"/>

  <!-- Top knowledge notes -->
  <g filter="url(#shadow)">
    <rect x="70" y="160" width="680" height="300" rx="18" fill="#fff0d4" stroke="#e5a354" stroke-width="2"/>
    <text x="100" y="195" class="knowledge-tag">AUTHN · 领域知识</text>
    <text x="100" y="232" class="knowledge-title">登录身份规则</text>
    <text x="100" y="272" class="knowledge-text">• ProviderKey = Provider + Realm + Identifier，且唯一</text>
    <text x="100" y="307" class="knowledge-text">• Realm 同时构成身份唯一性边界与安全边界</text>
    <text x="100" y="342" class="knowledge-text">• GlobalIdentifier 仅承接 Provider 的跨 Realm 稳定标识</text>
    <text x="100" y="377" class="knowledge-text">• Credential 从属于 LoginIdentity，而不是 User</text>
    <text x="100" y="412" class="knowledge-text">• 最后一个活跃身份不可解绑；敏感解绑需近期认证</text>
  </g>

  <g filter="url(#shadow)">
    <rect x="780" y="160" width="700" height="300" rx="18" fill="#fff0d4" stroke="#e5a354" stroke-width="2"/>
    <text x="810" y="195" class="knowledge-tag">AUTHN · 领域知识</text>
    <text x="810" y="232" class="knowledge-title">认证证明与多态策略</text>
    <text x="810" y="272" class="knowledge-text">• AuthCredential 通过 CredentialKind 表达证明类型</text>
    <text x="810" y="307" class="knowledge-text">• Authenticator 根据 Kind 选择已注册 AuthStrategy</text>
    <text x="810" y="342" class="knowledge-text">• 每个 AuthStrategy 只负责一种认证方式</text>
    <text x="810" y="377" class="knowledge-text">• Challenge 是部分策略使用的短期认证挑战</text>
    <text x="810" y="412" class="knowledge-text">• 具体策略由 Container 在进程启动时完成装配</text>
  </g>

  <g filter="url(#shadow)">
    <rect x="1710" y="160" width="760" height="300" rx="18" fill="#fff0d4" stroke="#e5a354" stroke-width="2"/>
    <text x="1740" y="195" class="knowledge-tag">IDENTITY · 领域知识</text>
    <text x="1740" y="232" class="knowledge-title">稳定身份与自然人档案</text>
    <text x="1740" y="272" class="knowledge-text">• User 表达“谁可以使用系统”</text>
    <text x="1740" y="307" class="knowledge-text">• Profile 表达“被业务服务的是哪个自然人”</text>
    <text x="1740" y="342" class="knowledge-text">• User 与 Profile 拥有独立生命周期</text>
    <text x="1740" y="377" class="knowledge-text">• AuthN、AuthZ 仅以 UserID 对齐，不读取 User 聚合</text>
  </g>

  <g filter="url(#shadow)">
    <rect x="2500" y="160" width="760" height="300" rx="18" fill="#fff0d4" stroke="#e5a354" stroke-width="2"/>
    <text x="2530" y="195" class="knowledge-tag">AUTHZ · 领域知识</text>
    <text x="2530" y="232" class="knowledge-title">授权主体与角色</text>
    <text x="2530" y="272" class="knowledge-text">• Subject 是授权引用，不拥有 User</text>
    <text x="2530" y="307" class="knowledge-text">• Subject(user).ID 对齐 Identity.User.ID</text>
    <text x="2530" y="342" class="knowledge-text">• 模型允许 user / group / service 三类主体</text>
    <text x="2530" y="377" class="knowledge-text">• 当前运行时仅装配 UserSubjectResolver</text>
    <text x="2530" y="412" class="knowledge-text">• group / service 是扩展点，不是当前已接入能力</text>
  </g>

  <g filter="url(#shadow)">
    <rect x="3290" y="160" width="840" height="300" rx="18" fill="#fff0d4" stroke="#e5a354" stroke-width="2"/>
    <text x="3320" y="195" class="knowledge-tag">AUTHZ · 领域知识</text>
    <text x="3320" y="232" class="knowledge-title">权限与资源匹配</text>
    <text x="3320" y="272" class="knowledge-text">• Permission 描述 ResourceKey、Action 与 Scope</text>
    <text x="3320" y="307" class="knowledge-text">• Resource Catalog 定义可授权的动作与范围类型</text>
    <text x="3320" y="342" class="knowledge-text">• 它是能力目录，不是 Patient / Report 等业务对象实例</text>
    <text x="3320" y="377" class="knowledge-text">• ResourceKey 与 Action 支持模式匹配</text>
    <text x="3320" y="412" class="knowledge-text">• AuthZ Scope 不等于 ProfileLink 或 Suggest 可见范围</text>
  </g>

  <!-- Bottom knowledge notes -->
  <g filter="url(#shadow)">
    <rect x="70" y="2600" width="680" height="350" rx="18" fill="#fff0d4" stroke="#e5a354" stroke-width="2"/>
    <text x="100" y="2635" class="knowledge-tag">AUTHN · 领域知识</text>
    <text x="100" y="2672" class="knowledge-title">认证结果规则</text>
    <text x="100" y="2712" class="knowledge-text">• AuthDecision 成功时才产生 Principal</text>
    <text x="100" y="2747" class="knowledge-text">• 认证成功不等于允许建立在线会话</text>
    <text x="100" y="2782" class="knowledge-text">• AdmissionPolicy 校验 User、LoginIdentity 归属与状态</text>
    <text x="100" y="2817" class="knowledge-text">• 仅 active Decision 允许建立或维持 Session</text>
    <text x="100" y="2852" class="knowledge-text">• Principal 是请求级认证结果，不是稳定 User</text>
    <text x="100" y="2887" class="knowledge-text">• Admission 只控制认证状态，不负责资源授权</text>
  </g>

  <g filter="url(#shadow)">
    <rect x="780" y="2600" width="700" height="350" rx="18" fill="#fff0d4" stroke="#e5a354" stroke-width="2"/>
    <text x="810" y="2635" class="knowledge-tag">AUTHN · 领域知识</text>
    <text x="810" y="2672" class="knowledge-title">会话、令牌与适配边界</text>
    <text x="810" y="2712" class="knowledge-text">• LifetimePolicy 约束滑动 TTL 与绝对生命周期</text>
    <text x="810" y="2747" class="knowledge-text">• SessionEstablisher、Refresher 等是应用层窄能力</text>
    <text x="810" y="2782" class="knowledge-text">• AccessToken / RefreshToken 是应用结果，不是聚合根</text>
    <text x="810" y="2817" class="knowledge-text">• RefreshToken 原子轮换；重放会撤销对应 Session</text>
    <text x="810" y="2852" class="knowledge-text">• JWT 验签后仍需检查 Session 与 AdmissionPolicy</text>
    <text x="810" y="2887" class="knowledge-text">• AccessTokenCodec、KeySet、JWKS 位于适配/协议边界</text>
  </g>

  <g filter="url(#shadow)">
    <rect x="1710" y="2600" width="760" height="350" rx="18" fill="#fff0d4" stroke="#e5a354" stroke-width="2"/>
    <text x="1740" y="2635" class="knowledge-tag">IDENTITY · 领域知识</text>
    <text x="1740" y="2672" class="knowledge-title">ProfileLink 的边界</text>
    <text x="1740" y="2712" class="knowledge-text">• User 与 Profile 通过 ProfileLink 形成多对多关系</text>
    <text x="1740" y="2747" class="knowledge-text">• RevokedAt = nil 表示当前有效；撤销保留历史</text>
    <text x="1740" y="2782" class="knowledge-text">• 每个 User 最多一个 active self 关系</text>
    <text x="1740" y="2817" class="knowledge-text">• self / parent / ... 只描述自然人身份关系</text>
    <text x="1740" y="2852" class="knowledge-text">• 不表达业务关系，也不产生权限继承</text>
  </g>

  <g filter="url(#shadow)">
    <rect x="2500" y="2600" width="760" height="350" rx="18" fill="#fff0d4" stroke="#e5a354" stroke-width="2"/>
    <text x="2530" y="2635" class="knowledge-tag">AUTHZ · 领域知识</text>
    <text x="2530" y="2672" class="knowledge-title">策略变更规则</text>
    <text x="2530" y="2712" class="knowledge-text">• AuthorizationPolicy 修改 RoleBinding 或 Permission</text>
    <text x="2530" y="2747" class="knowledge-text">• 事实提交后才推进租户 PolicyVersion</text>
    <text x="2530" y="2782" class="knowledge-text">• 已提交版本不代表所有实例已经加载</text>
    <text x="2530" y="2817" class="knowledge-text">• VersionChangedEvent 只是缓存失效与收敛信号</text>
    <text x="2530" y="2852" class="knowledge-text">• 策略变更和单次授权判定是两类语义</text>
    <text x="2530" y="2887" class="knowledge-text">• 同一 Subject / Role / Tenant 只允许一个 active RoleBinding</text>
  </g>

  <g filter="url(#shadow)">
    <rect x="3290" y="2600" width="840" height="350" rx="18" fill="#fff0d4" stroke="#e5a354" stroke-width="2"/>
    <text x="3320" y="2635" class="knowledge-tag">AUTHZ · 领域知识</text>
    <text x="3320" y="2672" class="knowledge-title">授权判定规则</text>
    <text x="3320" y="2712" class="knowledge-text">• Subject、Tenant 与 Scope 必须来自服务端可信上下文</text>
    <text x="3320" y="2747" class="knowledge-text">• 客户端自报的 UserID / TenantID / Scope 不可信</text>
    <text x="3320" y="2782" class="knowledge-text">• 无匹配策略时默认拒绝：Deny(not_matched)</text>
    <text x="3320" y="2817" class="knowledge-text">• 执行错误必须返回 error，不能降级为放行</text>
    <text x="3320" y="2852" class="knowledge-text">• 请求不携带 AuthN Principal 领域对象</text>
    <text x="3320" y="2887" class="knowledge-text">• Decision 返回允许 / 拒绝及对应匹配证据</text>
  </g>

  <!-- Global boundary conclusion -->
  <rect x="70" y="2990" width="4060" height="350" rx="24" fill="#f8fafc" stroke="#cbd5e1" stroke-width="2"/>
  <text x="2100" y="3045" text-anchor="middle" class="callout">User ≠ Principal ≠ Subject</text>
  <text x="2100" y="3090" text-anchor="middle" class="note">User 是 Identity 拥有的稳定身份；Principal 是 AuthN 产生的认证结果；Subject 是 AuthZ 使用的授权引用。</text>
  <text x="2100" y="3130" text-anchor="middle" class="note">AuthN 通过 UserStatusReader、AuthZ 通过 UserResolver 使用 Identity 事实；二者不导入 Identity User Repository。</text>
  <!-- Model color legend -->
  <rect x="250" y="3160" width="42" height="28" rx="7" class="authn-model"/>
  <text x="310" y="3181" class="small">普通状态 / 值模型：白底 + 细边框</text>
  <rect x="1120" y="3160" width="42" height="28" rx="7" class="identity-aggregate"/>
  <text x="1180" y="3181" class="small">聚合根：白底 + 粗边框</text>
  <rect x="1900" y="3160" width="42" height="28" rx="7" class="authz-behavior"/>
  <text x="1960" y="3181" class="small">领域服务 / 领域策略：浅主题色底</text>
  <rect x="3060" y="3160" width="28" height="28" rx="6" fill="#dff3e5" stroke="#2f855a" stroke-width="2"/>
  <rect x="3098" y="3160" width="28" height="28" rx="6" fill="#ffefbd" stroke="#d29b23" stroke-width="2"/>
  <rect x="3136" y="3160" width="28" height="28" rx="6" fill="#e8def8" stroke="#7653b5" stroke-width="2"/>
  <text x="3182" y="3181" class="small">色相 = 所属限界上下文</text>

  <!-- Relation legend -->
  <line x1="360" y1="3250" x2="440" y2="3250" class="association"/>
  <text x="455" y="3257" class="small">模块内领域关系</text>
  <line x1="920" y1="3250" x2="1000" y2="3250" class="reference"/>
  <text x="1015" y="3257" class="small">跨上下文稳定 ID 引用</text>
  <line x1="1610" y1="3250" x2="1690" y2="3250" class="policy-link"/>
  <text x="1705" y="3257" class="small">策略变更语义</text>
  <line x1="2140" y1="3250" x2="2220" y2="3250" class="knowledge-line"/>
  <text x="2235" y="3257" class="small">领域知识解释线，不表示依赖</text>
  <text x="2100" y="3310" text-anchor="middle" class="small">阅读顺序：先看中心模型与关系，再看颜色图例，最后看橙色便签中的不变量、约束和易混淆点。</text>

  <text x="2100" y="3420" text-anchor="middle" class="subtitle">三条稳定边界：Identity 拥有 User；AuthN 产生 Principal；AuthZ 使用 Subject</text>
</svg>
